<?xml version="1.0" encoding="UTF-8" standalone="no"?>
<!-- Created with Inkscape (http://www.inkscape.org/) -->

<svg
   width="742.93921"
   height="572.5033"
   viewBox="0 0 742.93921 572.5033"
   version="1.1"
   id="svg1"
   xmlns="http://www.w3.org/2000/svg"
   xmlns:svg="http://www.w3.org/2000/svg">
  <defs
     id="defs1">
    <rect
       x="342.93454"
       y="581.46082"
       width="349.72534"
       height="138.36221"
       id="rect20" />
  </defs>
  <g
     id="layer1"
     transform="translate(-144.10165,-218.87138)">
    <path
       id="rect1"
       style="fill:#9feb7e;fill-opacity:1;stroke-width:4.7811;stroke-dashoffset:259.136"
       d="m 351.87434,218.87138 h 350.70108 c 48.5721,0 87.67527,39.10317 87.67527,87.67528 v 350.70108 c 0,48.5721 -39.10317,87.67527 -87.67527,87.67527 H 351.87434 c -48.57211,0 -87.67528,-39.10317 -87.67528,-87.67527 V 306.54666 c 0,-48.57211 39.10317,-87.67528 87.67528,-87.67528 z" />
    <path
       style="fill:#7e9beb;fill-opacity:1;stroke-width:5.60185;stroke-dashoffset:259.136"
       d="M 259.65486,525.29216 H 793.91854 V 791.37471 H 259.65486 Z"
       id="path13" />
    <path
       style="fill:#9feb7e;fill-opacity:1;stroke-width:4.7811;stroke-dashoffset:259.136"
       d="M 778.9646,378.28683 887.04084,270.21059 c 0,0 -97.8665,219.20957 -112.21361,194.35966 -14.3471,-24.84991 4.13737,-86.28342 4.13737,-86.28342 z"
       id="path14" />
    <path
       id="path15"
       style="fill:#9feb7e;fill-opacity:1;stroke-width:4.7811;stroke-dashoffset:259.136"
       d="M 679.26815,218.87138 H 328.56707 c -48.5721,0 -87.67527,39.10317 -87.67527,87.67528 v 350.70108 c 0,48.5721 39.10317,87.67527 87.67527,87.67527 h 350.70108 c 48.57211,0 87.67528,-39.10317 87.67528,-87.67527 V 306.54666 c 0,-48.57211 -39.10317,-87.67528 -87.67528,-87.67528 z" />
    <path
       style="fill:#7e9beb;fill-opacity:1;stroke-width:5.60185;stroke-dashoffset:259.136"
       d="M 771.48763,525.29216 H 237.22395 v 266.08255 h 534.26368 z"
       id="path16" />
    <path
       style="fill:#9feb7e;fill-opacity:1;stroke-width:4.7811;stroke-dashoffset:259.136"
       d="M 252.17789,378.28683 144.10165,270.21059 c 0,0 97.8665,219.20957 112.21361,194.35966 14.3471,-24.84991 -4.13737,-86.28342 -4.13737,-86.28342 z"
       id="path17" />
    <circle
       style="fill:#ffffff;fill-opacity:1;stroke-width:4.7811;stroke-dashoffset:259.136"
       id="path18"
       cx="404.28226"
       cy="356.56927"
       r="66.883362" />
    <circle
       style="fill:#ffffff;fill-opacity:1;stroke-width:4.7811;stroke-dashoffset:259.136"
       id="circle18"
       cx="634.32697"
       cy="356.56927"
       r="66.883362" />
    <path
       style="fill:none;fill-opacity:1;stroke:#000000;stroke-width:3.48;stroke-dasharray:none;stroke-dashoffset:259.136;stroke-opacity:1"
       d="m 429.41677,472.03625 89.96936,-2.30199 87.25025,2.30199"
       id="path19" />
    <circle
       style="fill:#3e60d5;fill-opacity:1;stroke:#000000;stroke-width:3.48;stroke-dasharray:none;stroke-dashoffset:259.136;stroke-opacity:1"
       id="path20"
       cx="404.83105"
       cy="360.48477"
       r="27.659264" />
    <circle
       style="fill:#3e60d5;fill-opacity:1;stroke:#000000;stroke-width:3.48;stroke-dasharray:none;stroke-dashoffset:259.136;stroke-opacity:1"
       id="circle20"
       cx="633.8335"
       cy="359.25125"
       r="27.659264" />
    <text
       xml:space="preserve"
       id="text20"
       style="font-size:96px;font-family:'Bookman Old Style';-inkscape-font-specification:'Bookman Old Style';white-space:pre;shape-inside:url(#rect20);display:inline;fill:#3e60d5;fill-opacity:1;stroke:#000000;stroke-width:3.48;stroke-dasharray:none;stroke-dashoffset:259.136;stroke-opacity:1"
       transform="matrix(0.44716802,0,0,0.44716802,119.39573,305.92876)"><tspan
         x="342.93359"
         y="667.57294"
         id="tspan4"><tspan
           style="font-family:Magneto;-inkscape-font-specification:Magneto;fill:#ffffff;stroke:none"
           id="tspan3">Ralph</tspan></tspan></text>
    <path
       style="fill:#9feb7e;fill-opacity:1;stroke:none;stroke-width:3.48;stroke-dasharray:none;stroke-dashoffset:259.136;stroke-opacity:1"
       d="M 539.92694,300.56217 312.56141,366.49385 370.23129,261.71771 489.34515,227.17695 Z"
       id="path21" />
    <path
       style="fill:#9feb7e;fill-opacity:1;stroke:none;stroke-width:3.48;stroke-dasharray:none;stroke-dashoffset:259.136;stroke-opacity:1"
       d="M 539.92694,300.56217 312.56141,366.49385 370.23129,261.71771 489.34515,227.17695 Z"
       id="path22" />
    <path
       style="fill:#9feb7e;fill-opacity:1;stroke:none;stroke-width:3.48;stroke-dasharray:none;stroke-dashoffset:259.136;stroke-opacity:1"
       d="M 503.01308,301.65047 730.37861,367.58215 672.70873,262.80601 553.59487,228.26525 Z"
       id="path23" />
  </g>
</svg>
