<?xml version="1.0" encoding="UTF-8" standalone="no"?>
<!-- Created with Inkscape (http://www.inkscape.org/) -->

<svg
   width="742.93921"
   height="572.5033"
   viewBox="0 0 742.93921 572.5033"
   version="1.1"
   id="svg1"
   inkscape:version="1.3.2 (091e20e, 2023-11-25, custom)"
   sodipodi:docname="ralph_happy.svg"
   xmlns:inkscape="http://www.inkscape.org/namespaces/inkscape"
   xmlns:sodipodi="http://sodipodi.sourceforge.net/DTD/sodipodi-0.dtd"
   xmlns="http://www.w3.org/2000/svg"
   xmlns:svg="http://www.w3.org/2000/svg">
  <sodipodi:namedview
     id="namedview1"
     pagecolor="#ffffff"
     bordercolor="#000000"
     borderopacity="0.25"
     inkscape:showpageshadow="2"
     inkscape:pageopacity="0.0"
     inkscape:pagecheckerboard="0"
     inkscape:deskcolor="#d1d1d1"
     inkscape:document-units="px"
     inkscape:zoom="1.1711268"
     inkscape:cx="488.4185"
     inkscape:cy="513.60792"
     inkscape:window-width="1920"
     inkscape:window-height="1009"
     inkscape:window-x="-8"
     inkscape:window-y="-8"
     inkscape:window-maximized="1"
     inkscape:current-layer="layer1" />
  <defs
     id="defs1">
    <rect
       x="342.93454"
       y="581.46082"
       width="349.72534"
       height="138.36221"
       id="rect20" />
  </defs>
  <g
     inkscape:label="Calque 1"
     inkscape:groupmode="layer"
     id="layer1"
     transform="translate(-144.10165,-218.87138)">
    <path
       id="rect1"
       style="fill:#9feb7e;fill-opacity:1;stroke-width:4.7811;stroke-dashoffset:259.136"
       d="m 351.87434,218.87138 h 350.70108 c 48.5721,0 87.67527,39.10317 87.67527,87.67528 v 350.70108 c 0,48.5721 -39.10317,87.67527 -87.67527,87.67527 H 351.87434 c -48.57211,0 -87.67528,-39.10317 -87.67528,-87.67527 V 306.54666 c 0,-48.57211 39.10317,-87.67528 87.67528,-87.67528 z" />
    <path
       style="fill:#7e9beb;fill-opacity:1;stroke-width:5.60185;stroke-dashoffset:259.136"
       d="M 259.65486,525.29216 H 793.91854 V 791.37471 H 259.65486 Z"
       id="path13"
       sodipodi:nodetypes="ccccc" />
    <path
       style="fill:#9feb7e;fill-opacity:1;stroke-width:4.7811;stroke-dashoffset:259.136"
       d="M 778.9646,378.28683 887.04084,270.21059 c 0,0 -97.8665,219.20957 -112.21361,194.35966 -14.3471,-24.84991 4.13737,-86.28342 4.13737,-86.28342 z"
       id="path14"
       inkscape:label="path14" />
    <path
       id="path15"
       style="fill:#9feb7e;fill-opacity:1;stroke-width:4.7811;stroke-dashoffset:259.136"
       d="M 679.26815,218.87138 H 328.56707 c -48.5721,0 -87.67527,39.10317 -87.67527,87.67528 v 350.70108 c 0,48.5721 39.10317,87.67527 87.67527,87.67527 h 350.70108 c 48.57211,0 87.67528,-39.10317 87.67528,-87.67527 V 306.54666 c 0,-48.57211 -39.10317,-87.67528 -87.67528,-87.67528 z" />
    <path
       style="fill:#7e9beb;fill-opacity:1;stroke-width:5.60185;stroke-dashoffset:259.136"
       d="M 771.48763,525.29216 H 237.22395 v 266.08255 h 534.26368 z"
       id="path16"
       sodipodi:nodetypes="ccccc" />
    <path
       style="fill:#9feb7e;fill-opacity:1;stroke-width:4.7811;stroke-dashoffset:259.136"
       d="M 252.17789,378.28683 144.10165,270.21059 c 0,0 97.8665,219.20957 112.21361,194.35966 14.3471,-24.84991 -4.13737,-86.28342 -4.13737,-86.28342 z"
       id="path17"
       inkscape:label="path14" />
    <circle
       style="fill:#ffffff;fill-opacity:1;stroke-width:4.7811;stroke-dashoffset:259.136"
       id="path18"
       cx="404.28226"
       cy="356.56927"
       r="66.883362" />
    <circle
       style="fill:#ffffff;fill-opacity:1;stroke-width:4.7811;stroke-dashoffset:259.136"
       id="circle18"
       cx="634.32697"
       cy="356.56927"
       r="66.883362" />
    <path
       style="fill:none;fill-opacity:1;stroke:#000000;stroke-width:3.48;stroke-dasharray:none;stroke-dashoffset:259.136;stroke-opacity:1"
       d="m 429.41677,463.49746 c 28.37427,9.70234 48.68126,24.78288 92.531,24.16825 30.67331,-1.94665 57.2151,-14.2221 84.68861,-24.16825"
       id="path19"
       sodipodi:nodetypes="ccc" />
    <circle
       style="fill:#3e60d5;fill-opacity:1;stroke:#000000;stroke-width:3.48;stroke-dasharray:none;stroke-dashoffset:259.136;stroke-opacity:1"
       id="path20"
       cx="404.83105"
       cy="360.48477"
       r="27.659264" />
    <circle
       style="fill:#3e60d5;fill-opacity:1;stroke:#000000;stroke-width:3.48;stroke-dasharray:none;stroke-dashoffset:259.136;stroke-opacity:1"
       id="circle20"
       cx="633.8335"
       cy="359.25125"
       r="27.659264" />
    <text
       xml:space="preserve"
       id="text20"
       style="font-size:96px;font-family:'Bookman Old Style';-inkscape-font-specification:'Bookman Old Style';white-space:pre;shape-inside:url(#rect20);display:inline;fill:#3e60d5;fill-opacity:1;stroke:#000000;stroke-width:3.48;stroke-dasharray:none;stroke-dashoffset:259.136;stroke-opacity:1"
       transform="matrix(0.44716802,0,0,0.44716802,119.39573,305.92876)"
       inkscape:export-filename="ralph_happy.svg"
       inkscape:export-xdpi="96"
       inkscape:export-ydpi="96"><tspan
         x="342.93359"
         y="670.00781"
         id="tspan4"><tspan
           style="font-family:Magneto;-inkscape-font-specification:Magneto;fill:#ffffff;stroke:none"
           id="tspan3">Ralph</tspan></tspan></text>
  </g>
</svg>
